<?xml version="1.0" encoding="utf-8"?>
<svg width="86px" height="28px" viewBox="0 0 86 28" version="1.1" xmlns="http://www.w3.org/2000/svg" xmlns:xlink="http://www.w3.org/1999/xlink">
	<title>Logo</title>
	<style type="text/css">
		.logo{fill:#07c}
		.biechu{fill:#07c}
	</style>
<path class="logo" d="M14,0c3.7,0,6.3,1,8.5,2.5c0.5,0.3,0.9,0.7,1.3,1c0.2,0.2,0.4,0.4,0.6,0.5c-1.1,1.1-2.2,2.2-3.3,3.3
	c0,0-0.1-0.1-0.1-0.1c-0.1-0.1-0.1-0.1-0.2-0.2c-0.2-0.2-0.4-0.3-0.6-0.5c-0.6-0.4-1.2-0.8-2-1.2c-0.8-0.3-1.5-0.5-2.5-0.7
	c-0.2,0-0.4,0-0.6-0.1c-0.2,0-0.4,0-0.6,0c-0.3,0-0.7,0-1,0.1c-0.4,0.1-0.7,0.1-1,0.2c-1,0.3-1.9,0.6-2.7,1c0-1.7,0-3.4,0-5.1
	c0.3-0.1,0.7-0.2,1-0.3c0.5-0.1,1-0.2,1.5-0.3c0.4-0.1,0.8-0.1,1.2-0.1C13.7,0,13.8,0,14,0z"/>
<path class="logo" d="M4.9,3.6c0,1.1,0,2.1,0,3.2c0,1.8,0,3.7,0,5.5c0,1.1-0.1,2.3,0.1,3.2c0.1,0.6,0.2,1.1,0.4,1.6
	c1,2.7,2.8,4.5,5.4,5.6c0.5,0.2,1.1,0.4,1.8,0.5c0.3,0,0.5,0.1,0.8,0.1c0.3,0,0.5,0,0.8,0c1,0,1.9-0.1,2.7-0.4
	c1.1-0.3,2.1-0.9,2.9-1.5c0.2-0.2,0.4-0.3,0.6-0.5c0.1-0.1,0.2-0.2,0.3-0.3c1.1,1.1,2.2,2.2,3.3,3.3c-0.1,0.1-0.2,0.2-0.2,0.2
	c-0.2,0.2-0.4,0.3-0.6,0.5c-0.5,0.4-0.9,0.7-1.4,1.1c-1.2,0.7-2.4,1.3-3.9,1.8c-0.5,0.2-1.1,0.2-1.6,0.3c-0.4,0.1-0.7,0.1-1.1,0.1
	c-0.3,0-0.7,0-1,0c-0.3,0-0.6,0-0.8,0c-0.4-0.1-0.7,0-1-0.1c-0.9-0.2-1.7-0.3-2.5-0.6c-4.3-1.5-7.6-4.7-8.9-9.1
	C0.5,17,0.2,15.6,0.2,14c0-0.5,0-1,0.1-1.4c0.1-0.4,0.1-0.8,0.1-1.1c0.1-0.7,0.3-1.3,0.5-1.9c0.5-1.6,1.3-3,2.3-4.3
	c0.3-0.4,0.7-0.9,1.1-1.3C4.5,3.9,4.7,3.7,4.9,3.6z"/>
<path class="logo" d="M14,9.3c2.3,0,3.9,1.2,4.5,2.9c0.5,1.1,0.5,2.5,0,3.6c-0.5,1.3-1.6,2.2-3,2.7c-0.3,0.1-0.7,0.1-1.1,0.2
	c-0.2,0-0.3,0-0.5,0c-0.2,0-0.3,0-0.5,0c-0.4-0.1-0.7-0.2-1-0.3c-1.3-0.5-2.3-1.5-2.7-2.9c-0.2-0.5-0.3-1.4-0.2-2.1
	c0.1-0.3,0.1-0.6,0.2-0.9c0.5-1.3,1.4-2.3,2.7-2.8c0.3-0.1,0.6-0.2,0.9-0.2C13.7,9.4,13.8,9.4,14,9.3z"/>
<path class="biechu" d="M44.7,14.6c0,0,0,0.6,0,0.9c-0.3,6.4-0.6,8.8-1.2,9.6c-0.4,0.5-0.9,0.8-1.6,0.8c-0.6,0.1-1.8,0.1-3,0
	c-0.1-0.6-0.2-1.4-0.6-1.9c1.2,0.1,2.2,0.1,2.6,0.1s0.6-0.1,0.9-0.3c0.4-0.5,0.7-2.4,0.9-7.4H39c-0.6,4.3-1.9,7.7-5.7,9.8
	c-0.2-0.5-0.8-1.2-1.3-1.5c3.4-1.7,4.6-4.7,5.1-8.4h-4.4v-1.8h4.6c0.1-0.7,0.1-1.5,0.1-2.3h1.9c-0.1,0.8-0.1,1.5-0.2,2.3H44.7z
	 M44.3,11.6H33.7V2.9h10.6C44.3,2.9,44.3,11.6,44.3,11.6z M42.3,4.7h-6.8v5.1h6.8V4.7z M49.8,19.6h-1.9V4.9h1.9V19.6z M55.4,2.2
	v21.3c0,1.3-0.3,1.9-1.2,2.2c-0.8,0.4-2.2,0.4-4.6,0.4c-0.1-0.5-0.4-1.4-0.7-2c1.8,0.1,3.4,0.1,3.8,0c0.5,0,0.7-0.2,0.7-0.6V2.2
	H55.4z"/>
<path class="biechu" d="M72.9,6.2c-0.6,5.3-1.8,9.4-3.7,12.7c3,3.7,7,4.4,11.1,4.4c0.8,0,3.6,0,4.6,0c-0.3,0.5-0.7,1.5-0.8,2.1h-3.9
	c-4.5,0-8.9-0.8-12.1-4.7c-1.7,2.5-3.9,4.3-6.3,5.5c-0.3-0.4-1.1-1.2-1.6-1.5c2.7-1.3,4.9-3.1,6.6-5.8c-1-1.6-1.9-3.7-2.6-6.2
	c-0.6,1.3-1.2,2.4-1.9,3.3c-0.4-0.3-1.1-0.9-1.6-1.1c2.1-2.8,3.7-7.8,4.5-13l2.1,0.5c-0.2,1.2-0.5,2.4-0.8,3.6h4.7l0.4-0.1L72.9,6.2
	z M66,7.8c-0.2,0.8-0.5,1.5-0.7,2.2c0.7,2.9,1.6,5.2,2.7,7.1c1.3-2.5,2.2-5.6,2.7-9.3C70.6,7.8,66,7.8,66,7.8z M77.8,21.3h-2.1V1.7
	h2.1v6.9l0.7-0.3c2.1,2.2,4.6,5.2,5.8,7.1l-1.7,1.1c-0.9-1.6-2.9-4.1-4.7-6.2V21.3z"/>
</svg>
