<?xml version="1.0" encoding="utf-8"?>
<svg width="64px" height="64px" viewBox="0 0 64 64" version="1.1" xmlns="http://www.w3.org/2000/svg" xmlns:xlink="http://www.w3.org/1999/xlink">
<title>Face</title>
<style type="text/css">
	path{fill:#ccc;}
</style>
<path d="M2.02,64c-0.12-2.08,0.37-4.07,0.94-6.04c1.33-4.66,3.48-8.9,6.73-12.53c2.03-2.26,4.39-4.06,7.22-5.23
	c0.5-0.21,0.78-0.08,1.18,0.19c2.25,1.5,4.42,3.14,6.8,4.41c5.33,2.84,10.64,2.34,15.74-0.71c1.87-1.12,3.64-2.41,5.42-3.67
	c0.39-0.27,0.65-0.3,1.05-0.12c4.56,1.98,7.77,5.41,10.29,9.57c2.09,3.44,3.48,7.16,4.24,11.12c0.18,0.95,0.24,1.92,0.36,2.88
	c-0.21,0.05-0.42,0.15-0.63,0.15C51.38,64,41.4,64,31.42,64C21.62,64,11.82,64,2.02,64z"/>
<path d="M31.81,3.64c9.69,0,17.53,7.85,17.51,17.55c-0.02,9.62-7.9,17.48-17.53,17.48c-9.6,0-17.44-7.88-17.45-17.54
	C14.34,11.47,22.15,3.65,31.81,3.64z"/>
</svg>
